<?xml version="1.0" encoding="UTF-8" standalone="no"?><!DOCTYPE svg PUBLIC "-//W3C//DTD SVG 1.1//EN" "http://www.w3.org/Graphics/SVG/1.1/DTD/svg11.dtd"><svg width="100%" height="100%" viewBox="0 0 210 300" version="1.1" xmlns="http://www.w3.org/2000/svg" xmlns:xlink="http://www.w3.org/1999/xlink" xml:space="preserve" xmlns:serif="http://www.serif.com/" style="fill-rule:evenodd;clip-rule:evenodd;stroke-linejoin:round;stroke-miterlimit:2;"><rect id="Artboard2" x="0" y="0" width="209.571" height="300" style="fill:none;"/><clipPath id="_clip1"><rect x="0" y="0" width="209.571" height="300"/></clipPath><g clip-path="url(#_clip1)"><path d="M177.096,119.379l0,-47.068c0,-39.669 -32.642,-72.311 -72.311,-72.311c-39.668,0 -72.311,32.642 -72.311,72.311l0,47.068c-20.73,19.766 -32.474,47.193 -32.474,75.836c0,57.483 47.302,104.785 104.785,104.785c57.484,0 104.786,-47.302 104.786,-104.785c0,-28.643 -11.745,-56.07 -32.475,-75.836Zm-3.287,39.771l-10.255,5.916c-0.47,0.246 -0.993,0.375 -1.523,0.375c-1.803,0 -3.287,-1.484 -3.287,-3.287c0,-1.123 0.576,-2.171 1.524,-2.774l10.255,-5.916c0.47,-0.246 0.993,-0.375 1.523,-0.375c1.803,0 3.287,1.484 3.287,3.287c0,1.123 -0.576,2.171 -1.524,2.774Zm-121.614,-86.839c0,-28.85 23.74,-52.59 52.59,-52.59c28.85,0 52.59,23.74 52.59,52.59l0,32.244c-32.474,-18.867 -72.706,-18.867 -105.18,0l0,-32.244Zm55.877,45.194l0,11.833c0,1.803 -1.484,3.287 -3.287,3.287c-1.803,0 -3.287,-1.484 -3.287,-3.287l0,-11.833c0,-1.803 1.484,-3.286 3.287,-3.286c1.803,0 3.287,1.483 3.287,3.286Zm-34.545,23.502c-0.5,0.29 -1.069,0.442 -1.647,0.442c-1.18,0 -2.272,-0.634 -2.856,-1.659l-5.916,-10.255c-0.246,-0.47 -0.375,-0.993 -0.375,-1.523c0,-1.803 1.484,-3.287 3.287,-3.287c1.123,0 2.172,0.576 2.774,1.523l5.916,10.256c0.296,0.503 0.451,1.077 0.451,1.661c0,1.169 -0.623,2.254 -1.634,2.842Zm-46.377,57.421c-1.804,0 -3.287,-1.484 -3.287,-3.287c0,-1.803 1.483,-3.287 3.287,-3.287l11.898,0c1.803,0 3.287,1.484 3.287,3.287c0,1.803 -1.484,3.287 -3.287,3.287l-11.833,0l-0.065,0Zm22.284,32.474l-10.386,5.917c-0.47,0.246 -0.993,0.374 -1.524,0.374c-1.803,0 -3.286,-1.484 -3.286,-3.287c0,-1.123 0.575,-2.171 1.523,-2.774l10.255,-5.916c0.516,-0.31 1.107,-0.474 1.709,-0.474c1.82,0 3.318,1.497 3.318,3.317c0,1.163 -0.612,2.244 -1.609,2.843Zm1.217,-67.019c-0.584,1.024 -1.677,1.659 -2.856,1.659c-0.578,0 -1.147,-0.153 -1.647,-0.443l-10.387,-5.949c-0.948,-0.603 -1.523,-1.651 -1.523,-2.774c0,-1.803 1.483,-3.287 3.286,-3.287c0.531,0 1.054,0.129 1.524,0.375l10.255,5.916c1.08,0.567 1.759,1.691 1.759,2.91c0,0.558 -0.141,1.106 -0.411,1.593Zm24.092,89.896l-5.916,10.255c-0.603,0.948 -1.651,1.523 -2.774,1.523c-1.803,0 -3.287,-1.483 -3.287,-3.286c0,-0.531 0.129,-1.054 0.375,-1.524l5.916,-10.255c0.618,-0.85 1.608,-1.354 2.658,-1.354c1.803,0 3.287,1.484 3.287,3.287c0,0.467 -0.099,0.929 -0.292,1.354l0.033,0Zm33.329,19.031c0,1.803 -1.484,3.287 -3.287,3.287c-1.803,0 -3.287,-1.484 -3.287,-3.287l0,-11.833c0,-1.803 1.484,-3.287 3.287,-3.287c1.803,0 3.287,1.484 3.287,3.287l0,11.833Zm-26.295,-44.767c-11.342,-7.671 -18.155,-20.504 -18.155,-34.197c0,-22.647 18.636,-41.283 41.283,-41.283c4.837,0 9.636,0.85 14.178,2.511l12.457,-6.08c0.455,-0.227 0.957,-0.345 1.465,-0.345c1.803,0 3.287,1.484 3.287,3.287c0,0.115 -0.007,0.23 -0.019,0.344l-0.953,13.838c6.726,7.557 10.444,17.329 10.444,27.446c0,22.647 -18.635,41.283 -41.283,41.283c-8.069,0 -15.964,-2.366 -22.704,-6.804Zm63.47,37.207c-0.501,0.29 -1.069,0.443 -1.648,0.443c-1.179,0 -2.271,-0.635 -2.855,-1.659l-5.917,-10.255c-0.246,-0.47 -0.374,-0.993 -0.374,-1.524c0,-1.803 1.484,-3.287 3.287,-3.287c1.123,0 2.171,0.576 2.773,1.524l5.917,10.255c0.295,0.504 0.451,1.078 0.451,1.662c0,1.169 -0.624,2.253 -1.634,2.841Zm1.216,-135.715l-5.917,10.255c-0.602,0.948 -1.65,1.524 -2.773,1.524c-1.804,0 -3.287,-1.484 -3.287,-3.287c0,-0.531 0.128,-1.053 0.374,-1.523l5.916,-10.256c0.603,-0.947 1.651,-1.523 2.774,-1.523c1.803,0 3.287,1.484 3.287,3.287c0,0.53 -0.128,1.053 -0.374,1.523Zm28.431,106.068c-0.584,1.024 -1.676,1.658 -2.855,1.658c-0.579,0 -1.147,-0.152 -1.648,-0.442l-10.255,-5.917c-0.948,-0.602 -1.523,-1.65 -1.523,-2.774c0,-1.803 1.483,-3.286 3.286,-3.286c0.531,0 1.054,0.128 1.524,0.374l10.386,5.916c1.508,0.941 1.994,2.943 1.085,4.471Zm7.56,-37.175l-11.931,0c-1.804,0 -3.287,-1.484 -3.287,-3.287c0,-1.803 1.483,-3.287 3.287,-3.287l11.832,0c0.017,0 0.033,0 0.05,0c1.803,0 3.287,1.484 3.287,3.287c0,1.785 -1.454,3.26 -3.238,3.287Z" style="fill-rule:nonzero;"/></g></svg>